<svg t="1683787504231" class="icon" viewBox="0 0 1024 1024" version="1.1" xmlns="http://www.w3.org/2000/svg" p-id="4047" width="200" height="200"><path d="M853.32992 102.4H170.67008C133.13024 102.4 102.4 133.13024 102.4 170.67008v682.65984C102.4 890.86976 133.13024 921.6 170.67008 921.6h682.65984C890.86976 921.6 921.6 890.86976 921.6 853.32992V170.67008C921.6 133.13024 890.86976 102.4 853.32992 102.4zM512 204.8a68.29056 68.29056 0 0 1 68.27008 68.27008c0 37.66272-30.5664 68.25984-68.27008 68.25984s-68.27008-30.59712-68.27008-68.25984A68.29056 68.29056 0 0 1 512 204.8z m136.52992 614.4H375.47008v-68.27008h102.4V477.87008h-102.4V409.6H512a34.0992 34.0992 0 0 1 34.12992 34.12992v307.2h102.4V819.2z" p-id="4048"></path></svg>