<svg t="1683787806724" class="icon" viewBox="0 0 1024 1024" version="1.1" xmlns="http://www.w3.org/2000/svg" p-id="10359" width="200" height="200"><path d="M928 384a32 32 0 0 0-32 32v448c0 52.928-43.072 96-96 96h-640c-52.928 0-96-43.072-96-96v-640C64 171.072 107.072 128 160 128h448a32 32 0 0 0 0-64h-448A160.192 160.192 0 0 0 0 224v640C0 952.256 71.808 1024 160 1024h640c88.256 0 160-71.744 160-160v-448a32 32 0 0 0-32-32z" p-id="10360"></path><path d="M1014.656 9.344a32 32 0 0 0-45.248 0l-384 384a32 32 0 0 0 45.248 45.312l384-384a32.128 32.128 0 0 0 0-45.312zM480 320h-256a32 32 0 0 0 0 64h256a32 32 0 0 0 0-64zM736 512h-512a32 32 0 0 0 0 64h512a32 32 0 0 0 0-64zM736 704h-512a32 32 0 0 0 0 64h512a32 32 0 0 0 0-64z" p-id="10361"></path></svg>